<mxfile host="app.diagrams.net" agent="Mozilla/5.0 (Windows NT 10.0; Win64; x64) AppleWebKit/537.36 (KHTML, like Gecko) Chrome/131.0.0.0 Safari/537.36" version="24.8.6">
  <diagram name="Pagina-1" id="VX7PT2sa4RGvYPbcMWUg">
    <mxGraphModel dx="1400" dy="871" grid="1" gridSize="10" guides="1" tooltips="1" connect="1" arrows="1" fold="1" page="1" pageScale="1" pageWidth="1169" pageHeight="1654" math="0" shadow="0">
      <root>
        <mxCell id="0" />
        <mxCell id="1" parent="0" />
        <mxCell id="Zv-x9roUwf_AeT_ahScK-1" value="City Client" style="shape=cube;whiteSpace=wrap;html=1;boundedLbl=1;backgroundOutline=1;darkOpacity=0.05;darkOpacity2=0.1;size=10;verticalAlign=top;" vertex="1" parent="1">
          <mxGeometry x="260" y="130" width="270" height="100" as="geometry" />
        </mxCell>
        <mxCell id="Zv-x9roUwf_AeT_ahScK-2" value="User Client" style="shape=cube;whiteSpace=wrap;html=1;boundedLbl=1;backgroundOutline=1;darkOpacity=0.05;darkOpacity2=0.1;size=10;verticalAlign=top;" vertex="1" parent="1">
          <mxGeometry x="610" y="130" width="270" height="100" as="geometry" />
        </mxCell>
        <mxCell id="Zv-x9roUwf_AeT_ahScK-3" value="Server App" style="shape=cube;whiteSpace=wrap;html=1;boundedLbl=1;backgroundOutline=1;darkOpacity=0.05;darkOpacity2=0.1;size=10;verticalAlign=top;" vertex="1" parent="1">
          <mxGeometry x="485" y="310" width="250" height="250" as="geometry" />
        </mxCell>
        <mxCell id="Zv-x9roUwf_AeT_ahScK-5" value="" style="endArrow=none;html=1;rounded=0;entryX=0;entryY=0;entryDx=140;entryDy=100;entryPerimeter=0;exitX=0.247;exitY=0.017;exitDx=0;exitDy=0;exitPerimeter=0;" edge="1" parent="1" source="Zv-x9roUwf_AeT_ahScK-3" target="Zv-x9roUwf_AeT_ahScK-1">
          <mxGeometry width="50" height="50" relative="1" as="geometry">
            <mxPoint x="700" y="410" as="sourcePoint" />
            <mxPoint x="750" y="360" as="targetPoint" />
          </mxGeometry>
        </mxCell>
        <mxCell id="Zv-x9roUwf_AeT_ahScK-6" value="" style="endArrow=none;html=1;rounded=0;exitX=0.771;exitY=0.02;exitDx=0;exitDy=0;exitPerimeter=0;entryX=0;entryY=0;entryDx=140;entryDy=100;entryPerimeter=0;" edge="1" parent="1" source="Zv-x9roUwf_AeT_ahScK-3" target="Zv-x9roUwf_AeT_ahScK-2">
          <mxGeometry width="50" height="50" relative="1" as="geometry">
            <mxPoint x="700" y="410" as="sourcePoint" />
            <mxPoint x="750" y="360" as="targetPoint" />
          </mxGeometry>
        </mxCell>
        <mxCell id="Zv-x9roUwf_AeT_ahScK-7" value="Database" style="shape=cylinder3;whiteSpace=wrap;html=1;boundedLbl=1;backgroundOutline=1;size=15;" vertex="1" parent="1">
          <mxGeometry x="535" y="660" width="160" height="150" as="geometry" />
        </mxCell>
        <mxCell id="Zv-x9roUwf_AeT_ahScK-8" value="&amp;lt;&amp;lt;component&amp;gt;&amp;gt;&lt;div&gt;GUI&lt;/div&gt;" style="shape=module;align=left;spacingLeft=20;align=center;verticalAlign=top;whiteSpace=wrap;html=1;" vertex="1" parent="1">
          <mxGeometry x="290" y="170" width="210" height="50" as="geometry" />
        </mxCell>
        <mxCell id="Zv-x9roUwf_AeT_ahScK-9" value="&amp;lt;&amp;lt;component&amp;gt;&amp;gt;&lt;div&gt;&lt;span style=&quot;background-color: initial;&quot;&gt;GUI&lt;/span&gt;&lt;/div&gt;" style="shape=module;align=left;spacingLeft=20;align=center;verticalAlign=top;whiteSpace=wrap;html=1;" vertex="1" parent="1">
          <mxGeometry x="640" y="170" width="210" height="50" as="geometry" />
        </mxCell>
        <mxCell id="Zv-x9roUwf_AeT_ahScK-10" value="&amp;lt;&amp;lt;component&amp;gt;&amp;gt;&lt;div&gt;Salvataggio dati cittÃ &lt;/div&gt;" style="shape=module;align=left;spacingLeft=20;align=center;verticalAlign=top;whiteSpace=wrap;html=1;" vertex="1" parent="1">
          <mxGeometry x="510" y="350" width="210" height="50" as="geometry" />
        </mxCell>
        <mxCell id="Zv-x9roUwf_AeT_ahScK-11" value="&amp;lt;&amp;lt;component&amp;gt;&amp;gt;&lt;div&gt;Salvataggio dati utente&lt;/div&gt;" style="shape=module;align=left;spacingLeft=20;align=center;verticalAlign=top;whiteSpace=wrap;html=1;" vertex="1" parent="1">
          <mxGeometry x="510" y="416" width="210" height="50" as="geometry" />
        </mxCell>
        <mxCell id="Zv-x9roUwf_AeT_ahScK-12" value="&amp;lt;&amp;lt;component&amp;gt;&amp;gt;&lt;div&gt;Elaborazione viaggi&lt;/div&gt;" style="shape=module;align=left;spacingLeft=20;align=center;verticalAlign=top;whiteSpace=wrap;html=1;" vertex="1" parent="1">
          <mxGeometry x="510" y="480" width="210" height="50" as="geometry" />
        </mxCell>
        <mxCell id="Zv-x9roUwf_AeT_ahScK-13" value="" style="endArrow=none;html=1;rounded=0;exitX=0.5;exitY=0;exitDx=0;exitDy=0;exitPerimeter=0;entryX=0;entryY=0;entryDx=130;entryDy=250;entryPerimeter=0;" edge="1" parent="1" source="Zv-x9roUwf_AeT_ahScK-7" target="Zv-x9roUwf_AeT_ahScK-3">
          <mxGeometry width="50" height="50" relative="1" as="geometry">
            <mxPoint x="680" y="560" as="sourcePoint" />
            <mxPoint x="730" y="510" as="targetPoint" />
          </mxGeometry>
        </mxCell>
      </root>
    </mxGraphModel>
  </diagram>
</mxfile>
